<svg width="163" height="163" viewBox="0 0 163 163" fill="none" xmlns="http://www.w3.org/2000/svg">
<g filter="url(#filter0_d_3_43)">
<circle cx="81.5732" cy="77.2371" r="77.2371" fill="white"/>
<circle cx="81.5732" cy="77.2371" r="72.7371" stroke="#F5F5F5" stroke-width="9"/>
</g>
<path d="M112.216 93.0577L67.6401 82.2341L67.0179 83.5779C66.964 83.6955 66.9368 83.8235 66.9381 83.9528C66.9395 84.0822 66.9695 84.2096 67.0259 84.326C67.0822 84.4424 67.1637 84.5449 67.2643 84.6261C67.365 84.7074 67.4824 84.7653 67.608 84.7959L112.03 95.5875C112.2 95.6286 112.379 95.618 112.543 95.557C112.707 95.496 112.849 95.3873 112.951 95.245C113.053 95.1027 113.11 94.9332 113.115 94.7583C113.119 94.5833 113.072 94.4109 112.978 94.2631L112.216 93.0577Z" fill="#FFD600"/>
<path d="M108.642 87.4286L69.622 77.9545L68.5504 80.2681L110.575 90.4719L108.642 87.4286Z" fill="#FFD600"/>
<path d="M105.069 81.8006L71.6029 73.6738L70.5312 75.9886L107.001 84.8439L105.069 81.8006Z" fill="#FFD600"/>
<path d="M101.495 76.1715L73.5848 69.3942L72.5132 71.709L103.427 79.2148L101.495 76.1715Z" fill="#FFD600"/>
<path d="M97.9207 70.5425L75.5668 65.1147L74.4951 67.4283L99.8535 73.5857L97.9207 70.5425Z" fill="#FFD600"/>
<path d="M94.3468 64.9134L77.5487 60.8351L76.4771 63.1487L96.2796 67.9567L94.3468 64.9134Z" fill="#FFD600"/>
<path d="M90.7728 59.2843L79.5307 56.5544L78.4591 58.8691L92.7056 62.3287L90.7728 59.2843Z" fill="#FFD600"/>
<path d="M87.1989 53.6552L81.5126 52.2748L80.441 54.5896L89.1317 56.6996L87.1989 53.6552Z" fill="#FFD600"/>
<path d="M104.799 54.5758L91.8753 56.9684L93.4513 59.7944L100.942 58.4071C101.12 58.3744 101.303 58.3937 101.469 58.4626C101.636 58.5315 101.779 58.6471 101.882 58.7955C101.984 58.9439 102.041 59.1188 102.047 59.299C102.052 59.4793 102.005 59.6572 101.912 59.8115L77.3005 100.366C77.22 100.499 77.1074 100.609 76.9731 100.688C76.8389 100.766 76.6871 100.81 76.5316 100.815C76.3762 100.82 76.222 100.786 76.083 100.716C75.9441 100.646 75.8248 100.543 75.736 100.415L53.5124 68.5285C53.4232 68.4002 53.3676 68.2517 53.3506 68.0964C53.3336 67.9411 53.3558 67.7841 53.4152 67.6396C53.4746 67.4951 53.5692 67.3678 53.6905 67.2694C53.8118 67.1709 53.9558 67.1044 54.1094 67.076L73.8078 63.4289L75.7314 59.9556L50.4566 64.6343C50.1095 64.6987 49.784 64.8491 49.51 65.0718C49.236 65.2944 49.0222 65.5822 48.888 65.9088C48.7539 66.2353 48.7038 66.5903 48.7423 66.9413C48.7807 67.2923 48.9066 67.628 49.1082 67.9178L74.8886 104.924C75.0896 105.213 75.3594 105.446 75.6736 105.604C75.9878 105.761 76.3364 105.838 76.6877 105.826C77.039 105.815 77.3819 105.716 77.6852 105.539C77.9886 105.361 78.2428 105.111 78.4248 104.81L106.986 57.7449C107.198 57.3969 107.303 56.9953 107.291 56.5884C107.279 56.1816 107.15 55.7869 106.919 55.4519C106.688 55.117 106.364 54.8561 105.988 54.7006C105.612 54.5452 105.199 54.5018 104.799 54.5758Z" fill="url(#paint0_linear_3_43)"/>
<path d="M83.0211 48.9994L82.4241 50.3123L85.5577 51.074L84.2803 48.9308C84.2139 48.819 84.1182 48.7276 84.0036 48.6664C83.8889 48.6052 83.7597 48.5766 83.6299 48.5836C83.5001 48.5907 83.3748 48.6332 83.2674 48.7065C83.1601 48.7798 83.0749 48.8811 83.0211 48.9994Z" fill="#FFD600"/>
<defs>
<filter id="filter0_d_3_43" x="0.336182" y="0" width="162.474" height="162.474" filterUnits="userSpaceOnUse" color-interpolation-filters="sRGB">
<feFlood flood-opacity="0" result="BackgroundImageFix"/>
<feColorMatrix in="SourceAlpha" type="matrix" values="0 0 0 0 0 0 0 0 0 0 0 0 0 0 0 0 0 0 127 0" result="hardAlpha"/>
<feOffset dy="4"/>
<feGaussianBlur stdDeviation="2"/>
<feComposite in2="hardAlpha" operator="out"/>
<feColorMatrix type="matrix" values="0 0 0 0 0 0 0 0 0 0 0 0 0 0 0 0 0 0 0.25 0"/>
<feBlend mode="normal" in2="BackgroundImageFix" result="effect1_dropShadow_3_43"/>
<feBlend mode="normal" in="SourceGraphic" in2="effect1_dropShadow_3_43" result="shape"/>
</filter>
<linearGradient id="paint0_linear_3_43" x1="48.7228" y1="80.1824" x2="107.299" y2="80.1824" gradientUnits="userSpaceOnUse">
<stop offset="0.01" stop-color="#004F49"/>
<stop offset="0.92" stop-color="#2F8B37"/>
</linearGradient>
</defs>
</svg>
