<svg width="159" height="38" viewBox="0 0 159 38" fill="none" xmlns="http://www.w3.org/2000/svg">
<path d="M68.135 10.2043C66.5118 10.2043 65.196 11.5528 65.196 13.2162V23.2559H75.9721C77.5952 23.2559 78.9109 21.9074 78.9109 20.244V10.2043H68.135ZM75.9721 20.255H68.135V13.2052H75.9721V20.255Z" fill="#004E47"/>
<path d="M127.442 13.0119V18.6836L120.177 10.2043H120.153H117.363V23.46C118.986 23.46 120.302 22.1116 120.302 20.4482V14.8631L127.63 23.2558H130.381V10C128.758 10 127.442 11.3485 127.442 13.0119Z" fill="#004E47"/>
<path d="M99.4672 10.2043C97.8441 10.2043 96.5283 11.5528 96.5283 13.2162V23.2559H101.916V27.0001C103.539 27.0001 104.855 25.6516 104.855 23.9882V23.2559H107.304V23.2416C108.794 23.0952 109.959 21.8092 109.959 20.244V10.2043H99.4672ZM99.4672 20.255V13.2052H107.02V20.255H99.4672Z" fill="#004E47"/>
<path d="M91.6676 20.2549H83.8305V10C82.2074 10 80.8916 11.3485 80.8916 13.0119V23.2558H91.6676C93.2907 23.2558 94.6065 21.9073 94.6065 20.2439V10.2043H91.6676V20.2549Z" fill="#004E47"/>
<path d="M133.086 10.2043V23.4601C134.709 23.4601 136.025 22.1117 136.025 20.4483V18.9193H141.22V15.9184H136.025V13.2052H141.497C143.114 13.2052 144.425 11.8617 144.425 10.2044H136.025L133.086 10.2043Z" fill="#004E47"/>
<path d="M146.355 10.2043V13.2052H150.626V23.2559H153.565V13.2052H156.072C157.689 13.2052 159 11.8617 159 10.2043H146.355Z" fill="#004E47"/>
<path d="M53.9389 18.1345C52.3158 18.1345 51 16.786 51 15.1226V13.2162C51 11.5528 52.3158 10.2043 53.9389 10.2043C53.9389 10.2043 62.7128 10.2043 62.7128 10.2043C62.7128 11.8617 61.4019 13.2052 59.7847 13.2052H53.9389V15.1847L60.2722 15.1847C61.8953 15.1847 63.2111 16.5331 63.2111 18.1965V20.2507C63.2111 21.9141 61.8953 23.2626 60.2722 23.2626V23.2559H51V20.255H60.2722V18.1345H53.9389Z" fill="#004E47"/>
<path d="M38 2.23529L35.7647 0H7.88443L0 7.84683V35.7647C1.01414 36.7788 1.22116 36.9859 2.23529 38H30.1231L38 30.1199V2.23529Z" fill="url(#paint0_linear_5221_78137)"/>
<path d="M4.33374 33.6656V31.0884H27.1298L31.0878 27.3468V22.9641H28.3142V25.6682L25.6676 28.3149H4.33374V20.3868H17.7108V17.6133H15.0354V15.0361H31.0878V12.2624H12.2618V17.6133H4.33374V9.65644L9.65581 4.33447H33.665V6.91163H10.869L6.911 10.6534V15.0361H9.68458V12.3319L12.3312 9.68521H33.665V17.6133H20.2879V20.3868H22.9634V22.9641H6.911V25.7377H25.737V20.3868H33.665V28.3437L28.3429 33.6656H4.33374Z" fill="white"/>
<defs>
<linearGradient id="paint0_linear_5221_78137" x1="-4.99819" y1="42.9831" x2="42.607" y2="-4.62206" gradientUnits="userSpaceOnUse">
<stop stop-color="#004F49"/>
<stop offset="1" stop-color="#2F8B37"/>
</linearGradient>
</defs>
</svg>
